<svg width="22" height="23" viewBox="0 0 22 23" fill="none" xmlns="http://www.w3.org/2000/svg">
<path d="M16 1.84817C16.2626 1.57927 16.5744 1.36596 16.9176 1.22043C17.2608 1.0749 17.6286 1 18 1C18.3714 1 18.7392 1.0749 19.0824 1.22043C19.4256 1.36596 19.7374 1.57927 20 1.84817C20.2626 2.11708 20.471 2.43631 20.6131 2.78765C20.7553 3.13899 20.8284 3.51555 20.8284 3.89584C20.8284 4.27613 20.7553 4.65269 20.6131 5.00403C20.471 5.35537 20.2626 5.67461 20 5.94351L6.5 19.7653L1 21.301L2.5 15.6699L16 1.84817Z" stroke="#C4C4C4" stroke-width="2" stroke-linecap="round" stroke-linejoin="round"/>
</svg>
